M48
;DRILL file {KiCad (after 2015-may-25 BZR unknown)-product} date 06/09/2015 16:48:45
;FORMAT={-:-/ absolute / inch / decimal}
FMAT,2
INCH,TZ
T1C0.016
T2C0.030
T3C0.031
T4C0.039
T5C0.040
T6C0.047
T7C0.051
T8C0.120
T9C0.220
%
G90
G05
M72
T1
X1.79Y-5.47
X2.275Y-3.71
X2.505Y-5.635
X2.53Y-5.545
X2.635Y-5.92
X2.65Y-4.62
X2.685Y-5.895
X2.735Y-5.645
X2.77Y-4.39
X2.79Y-4.29
X2.79Y-4.99
X2.85Y-4.33
X2.85Y-4.93
X2.86Y-5.845
X2.87Y-5.03
X2.89Y-5.07
X3.01Y-4.01
X3.01Y-5.845
X3.11Y-5.12
X3.16Y-5.795
X3.185Y-5.47
X3.21Y-5.12
X3.23Y-5.03
X3.235Y-5.47
X3.29Y-5.51
X3.3Y-5.16
X3.32Y-5.8
X3.35Y-5.01
X3.36Y-5.57
X3.39Y-4.45
X3.45Y-5.77
X3.46Y-4.07
X3.48Y-5.27
X3.515Y-5.125
X3.53Y-5.31
X3.545Y-5.095
X3.55Y-5.77
X3.585Y-5.17
X3.6Y-5.66
X3.605Y-5.88
X3.61Y-5.14
X3.61Y-5.53
X3.63Y-5.01
X3.73Y-5.11
X3.73Y-5.65
X3.735Y-4.21
X3.745Y-5.18
X3.76Y-4.07
X3.78Y-5.7
X3.78Y-5.74
X3.825Y-4.215
X3.865Y-5.325
X3.875Y-5.37
X3.945Y-5.3
X3.95Y-5.69
X3.96Y-4.415
X3.975Y-5.56
X3.98Y-5.415
X3.985Y-3.895
X4.02Y-5.455
X4.03Y-5.3
X4.03Y-5.525
X4.035Y-4.735
X4.04Y-5.34
X4.055Y-4.41
X4.075Y-5.39
X4.085Y-4.07
X4.105Y-5.82
X4.12Y-4.735
X4.19Y-5.03
X4.235Y-5.255
X4.28Y-4.64
X4.315Y-4.15
X4.32Y-4.09
X4.325Y-4.57
X4.35Y-4.495
X4.365Y-5.195
X4.37Y-5.165
X4.39Y-5.83
X4.41Y-5.07
X4.42Y-4.07
X4.45Y-5.29
X4.46Y-5.605
X4.46Y-5.655
X4.49Y-5.15
X4.49Y-5.71
X4.505Y-4.335
X4.525Y-5.655
X4.545Y-4.1
X4.55Y-5.48
X4.555Y-4.385
X4.56Y-4.15
X4.57Y-4.47
X4.585Y-5.65
X4.62Y-6.14
X4.635Y-4.56
X4.67Y-5.37
X4.715Y-4.265
X4.77Y-4.585
X4.785Y-4.345
X4.8Y-4.54
X4.85Y-4.29
X4.85Y-4.325
X4.85Y-4.465
X4.85Y-6.13
X4.855Y-4.595
X4.865Y-4.23
X4.865Y-4.645
X4.915Y-4.395
X4.925Y-4.19
X4.99Y-4.235
X4.99Y-4.6
X4.99Y-4.64
X5.01Y-4.29
X5.04Y-4.14
X5.04Y-4.2
X5.06Y-4.59
X5.06Y-4.64
X5.11Y-5.865
X5.115Y-4.96
X5.125Y-5.05
X5.16Y-4.575
X5.16Y-4.625
X5.165Y-4.37
X5.195Y-4.685
X5.27Y-4.68
X5.27Y-5.61
X5.36Y-4.985
X5.385Y-4.59
X5.46Y-5.355
X5.505Y-4.335
X5.535Y-4.59
X5.61Y-5.54
X5.625Y-5.395
X5.69Y-5.69
X5.72Y-5.415
X5.72Y-5.545
X5.73Y-5.04
X5.735Y-5.365
X5.745Y-5.815
X5.75Y-5.685
X5.805Y-5.775
X5.845Y-5.695
X5.885Y-5.59
X5.915Y-4.595
X5.945Y-5.6
X5.95Y-5.235
X6.015Y-5.485
X6.085Y-5.815
X6.11Y-5.385
X6.115Y-5.57
X6.135Y-3.985
X6.175Y-5.28
X6.19Y-5.435
X6.27Y-3.965
X6.31Y-4.155
X6.31Y-4.215
X6.53Y-4.16
X6.6Y-4.215
X6.635Y-3.945
X6.655Y-5.475
X6.71Y-4.17
X6.82Y-4.82
X6.865Y-4.805
X6.865Y-4.955
X6.875Y-4.905
X6.9825Y-6.0925
X7.03Y-5.405
X7.035Y-6.115
X7.14Y-5.48
X7.24Y-4.84
X7.24Y-4.89
X7.245Y-4.945
X7.25Y-5.
X7.4125Y-5.3825
T2
X8.985Y-3.37
X8.985Y-3.47
X8.985Y-3.57
T3
X3.08Y-4.33
X3.08Y-4.43
X3.08Y-4.53
X3.08Y-4.63
X3.08Y-4.73
X3.08Y-4.83
X3.08Y-4.93
X3.18Y-4.33
X3.18Y-4.93
X3.28Y-4.33
X3.28Y-4.93
X3.38Y-4.33
X3.38Y-4.93
X3.48Y-4.33
X3.48Y-4.93
X3.58Y-4.33
X3.58Y-4.93
X3.68Y-4.33
X3.68Y-4.93
X3.78Y-4.33
X3.78Y-4.93
X3.88Y-4.33
X3.88Y-4.93
X3.98Y-4.33
X3.98Y-4.93
X4.08Y-4.33
X4.08Y-4.93
X4.18Y-4.33
X4.18Y-4.93
X4.28Y-4.33
X4.28Y-4.93
X4.38Y-4.33
X4.38Y-4.93
X8.6616Y-3.245
X8.7016Y-4.035
X8.71Y-3.77
X8.76Y-3.245
X8.8Y-4.035
X8.8084Y-3.77
T4
X6.36Y-4.595
X6.46Y-4.595
T5
X2.28Y-6.03
X2.38Y-6.03
X2.48Y-6.03
X2.58Y-6.03
X2.68Y-6.03
X2.88Y-6.03
X2.98Y-6.03
X3.08Y-6.03
X3.18Y-6.03
X3.28Y-6.03
X3.38Y-6.03
X3.48Y-6.03
X3.58Y-6.03
X3.78Y-6.03
X3.88Y-6.03
X3.98Y-6.03
X4.08Y-6.03
X4.18Y-6.03
X4.28Y-6.03
X4.38Y-6.03
X4.48Y-6.03
X4.81Y-5.65
X4.81Y-5.75
X4.81Y-5.85
X4.81Y-5.95
X4.91Y-5.65
X4.91Y-5.75
X4.91Y-5.85
X4.91Y-5.95
X5.28Y-6.03
X5.38Y-6.03
X5.48Y-6.03
X5.58Y-6.03
X5.68Y-6.03
X5.78Y-6.03
X5.88Y-6.03
X5.98Y-6.03
X6.48Y-6.03
X6.58Y-6.03
X6.68Y-6.03
X6.78Y-6.03
X6.88Y-6.03
X7.08Y-6.03
X7.18Y-6.03
X7.28Y-6.03
X7.38Y-6.03
X7.48Y-6.03
T6
X2.135Y-1.87
X2.135Y-2.17
X2.33Y-3.981
X2.33Y-4.788
X2.435Y-1.87
X2.435Y-2.17
X2.735Y-1.87
X2.735Y-2.17
X3.035Y-1.87
X3.035Y-2.17
X3.335Y-1.87
X3.335Y-2.17
X3.635Y-1.87
X3.635Y-2.17
X3.935Y-1.87
X3.935Y-2.17
X4.235Y-1.87
X4.235Y-2.17
X4.59Y-1.87
X4.59Y-2.17
X4.89Y-1.87
X4.89Y-2.17
X5.19Y-1.87
X5.19Y-2.17
X5.49Y-1.87
X5.49Y-2.17
X5.79Y-1.87
X5.79Y-2.17
X6.09Y-1.87
X6.09Y-2.17
X6.39Y-1.87
X6.39Y-2.17
X6.69Y-1.87
X6.69Y-2.17
X7.05Y-1.87
X7.05Y-2.17
X7.35Y-1.87
X7.35Y-2.17
X7.65Y-1.87
X7.65Y-2.17
X7.95Y-1.87
X7.95Y-2.17
X8.25Y-1.87
X8.25Y-2.17
X8.55Y-1.87
X8.55Y-2.17
X8.85Y-1.87
X8.85Y-2.17
X9.15Y-1.87
X9.15Y-2.17
T7
X2.61Y-2.68
X2.61Y-3.67
X3.085Y-2.68
X3.085Y-3.67
X3.56Y-2.68
X3.56Y-3.67
X4.035Y-2.68
X4.035Y-3.67
X4.51Y-2.68
X4.51Y-3.67
X4.985Y-2.68
X4.985Y-3.67
X5.46Y-2.68
X5.46Y-3.67
X5.935Y-2.68
X5.935Y-3.67
X6.41Y-2.68
X6.41Y-3.67
X6.885Y-2.68
X6.885Y-3.67
X7.36Y-2.68
X7.36Y-3.67
X7.835Y-2.68
X7.835Y-3.67
T8
X1.93Y-1.18
X1.93Y-5.98
X9.43Y-1.18
X9.43Y-5.98
T9
X9.21Y-2.67
X9.21Y-3.12
T0
M30
