G04 #@! TF.FileFunction,Soldermask,Top*
%FSLAX46Y46*%
G04 Gerber Fmt 4.6, Leading zero omitted, Abs format (unit mm)*
G04 Created by KiCad (PCBNEW (after 2015-may-25 BZR unknown)-product) date 06/09/2015 16:48:44*
%MOMM*%
G01*
G04 APERTURE LIST*
%ADD10C,0.100000*%
%ADD11R,1.300000X1.300000*%
%ADD12C,1.300000*%
%ADD13C,2.540000*%
%ADD14C,1.524000*%
%ADD15R,1.250000X1.500000*%
%ADD16R,1.500000X1.250000*%
%ADD17R,1.100000X0.700000*%
%ADD18R,1.830000X1.140000*%
%ADD19R,2.800000X0.900000*%
%ADD20R,3.330000X0.800000*%
%ADD21R,3.330000X0.700000*%
%ADD22R,0.930000X0.900000*%
%ADD23R,0.930000X1.050000*%
%ADD24R,2.000000X2.000000*%
%ADD25C,2.000000*%
%ADD26R,1.727200X2.032000*%
%ADD27O,1.727200X2.032000*%
%ADD28R,0.802000X0.972000*%
%ADD29R,1.500000X1.300000*%
%ADD30R,1.300000X1.500000*%
%ADD31R,0.600000X1.550000*%
%ADD32C,1.900000*%
%ADD33R,1.910000X1.020000*%
%ADD34C,8.000000*%
%ADD35C,4.064000*%
%ADD36R,1.981000X0.530000*%
%ADD37R,0.400000X2.000000*%
%ADD38R,0.900000X1.200000*%
%ADD39R,1.200000X0.750000*%
%ADD40C,3.000000*%
%ADD41R,2.500000X0.420000*%
%ADD42R,0.750000X1.200000*%
%ADD43R,1.193800X3.810000*%
%ADD44R,0.854000X0.600000*%
%ADD45R,1.727200X1.727200*%
%ADD46O,1.727200X1.727200*%
%ADD47R,1.198880X1.198880*%
G04 APERTURE END LIST*
D10*
D11*
X222504000Y-82423000D03*
D12*
X220004000Y-82423000D03*
X223734000Y-95758000D03*
D11*
X221234000Y-95758000D03*
D13*
X199009000Y-93218000D03*
X199009000Y-68072000D03*
X186944000Y-93218000D03*
X186944000Y-68072000D03*
X174879000Y-93218000D03*
X174879000Y-68072000D03*
X162814000Y-93218000D03*
X162814000Y-68072000D03*
X150749000Y-93218000D03*
X150749000Y-68072000D03*
X138684000Y-93218000D03*
X138684000Y-68072000D03*
X126619000Y-93218000D03*
X126619000Y-68072000D03*
X114554000Y-93218000D03*
X114554000Y-68072000D03*
X90424000Y-93218000D03*
X90424000Y-68072000D03*
X78359000Y-93218000D03*
X78359000Y-68072000D03*
X66294000Y-93218000D03*
X66294000Y-68072000D03*
X102489000Y-93218000D03*
X102489000Y-68072000D03*
D14*
X228219000Y-85598000D03*
X228219000Y-88138000D03*
X228219000Y-90678000D03*
D15*
X170942000Y-123972000D03*
X170942000Y-126472000D03*
X173482000Y-139045000D03*
X173482000Y-136545000D03*
X167132000Y-126472000D03*
X167132000Y-123972000D03*
D16*
X151150000Y-140716000D03*
X153650000Y-140716000D03*
D15*
X135890000Y-135148000D03*
X135890000Y-137648000D03*
D16*
X150642000Y-135636000D03*
X153142000Y-135636000D03*
X142514000Y-145923000D03*
X145014000Y-145923000D03*
X133624000Y-140843000D03*
X136124000Y-140843000D03*
D15*
X136144000Y-143403000D03*
X136144000Y-145903000D03*
D11*
X223520000Y-102489000D03*
D12*
X221020000Y-102489000D03*
D15*
X144272000Y-130576000D03*
X144272000Y-133076000D03*
D16*
X94214000Y-136398000D03*
X91714000Y-136398000D03*
D15*
X107696000Y-139212000D03*
X107696000Y-141712000D03*
D16*
X91714000Y-142113000D03*
X94214000Y-142113000D03*
X91714000Y-138938000D03*
X94214000Y-138938000D03*
D17*
X47540000Y-142017000D03*
X47540000Y-140917000D03*
X47540000Y-139817000D03*
X47540000Y-138717000D03*
X47540000Y-137617000D03*
X47540000Y-136517000D03*
X47540000Y-135417000D03*
X47540000Y-134317000D03*
D18*
X47590000Y-145917000D03*
D19*
X47990000Y-132967000D03*
D20*
X58590000Y-132967000D03*
D21*
X58790000Y-146167000D03*
D22*
X60040000Y-143617000D03*
D23*
X60040000Y-139317000D03*
D15*
X107696000Y-146411000D03*
X107696000Y-143911000D03*
D16*
X91714000Y-147828000D03*
X94214000Y-147828000D03*
X91714000Y-145288000D03*
X94214000Y-145288000D03*
D24*
X161544000Y-116713000D03*
D25*
X164084000Y-116713000D03*
D26*
X73152000Y-153162000D03*
D27*
X75692000Y-153162000D03*
X78232000Y-153162000D03*
X80772000Y-153162000D03*
X83312000Y-153162000D03*
X85852000Y-153162000D03*
X88392000Y-153162000D03*
X90932000Y-153162000D03*
D26*
X164592000Y-153162000D03*
D27*
X167132000Y-153162000D03*
X169672000Y-153162000D03*
X172212000Y-153162000D03*
X174752000Y-153162000D03*
D26*
X179832000Y-153162000D03*
D27*
X182372000Y-153162000D03*
X184912000Y-153162000D03*
X187452000Y-153162000D03*
X189992000Y-153162000D03*
D26*
X57912000Y-153162000D03*
D27*
X60452000Y-153162000D03*
X62992000Y-153162000D03*
X65532000Y-153162000D03*
X68072000Y-153162000D03*
D26*
X134112000Y-153162000D03*
D27*
X136652000Y-153162000D03*
X139192000Y-153162000D03*
X141732000Y-153162000D03*
X144272000Y-153162000D03*
X146812000Y-153162000D03*
X149352000Y-153162000D03*
X151892000Y-153162000D03*
D26*
X96012000Y-153162000D03*
D27*
X98552000Y-153162000D03*
X101092000Y-153162000D03*
X103632000Y-153162000D03*
X106172000Y-153162000D03*
X108712000Y-153162000D03*
X111252000Y-153162000D03*
X113792000Y-153162000D03*
D28*
X72324000Y-145288000D03*
X70424000Y-145288000D03*
X71374000Y-147058000D03*
X76134000Y-145288000D03*
X74234000Y-145288000D03*
X75184000Y-147058000D03*
X79944000Y-145288000D03*
X78044000Y-145288000D03*
X78994000Y-147058000D03*
X83754000Y-145288000D03*
X81854000Y-145288000D03*
X82804000Y-147058000D03*
D29*
X123872000Y-123952000D03*
X126572000Y-123952000D03*
X182292000Y-147066000D03*
X184992000Y-147066000D03*
X150067000Y-109347000D03*
X147367000Y-109347000D03*
X151939000Y-145542000D03*
X154639000Y-145542000D03*
X138604000Y-127000000D03*
X141304000Y-127000000D03*
X150669000Y-137795000D03*
X153369000Y-137795000D03*
D30*
X116332000Y-149940000D03*
X116332000Y-147240000D03*
X129794000Y-153369000D03*
X129794000Y-150669000D03*
D29*
X101172000Y-129032000D03*
X98472000Y-129032000D03*
X101172000Y-131572000D03*
X98472000Y-131572000D03*
X100664000Y-103378000D03*
X97964000Y-103378000D03*
D31*
X123317000Y-120302000D03*
X124587000Y-120302000D03*
X125857000Y-120302000D03*
X127127000Y-120302000D03*
X127127000Y-114902000D03*
X125857000Y-114902000D03*
X124587000Y-114902000D03*
X123317000Y-114902000D03*
D32*
X108712000Y-109982000D03*
X106172000Y-109982000D03*
X103632000Y-109982000D03*
X101092000Y-109982000D03*
X98552000Y-109982000D03*
X96012000Y-109982000D03*
X93472000Y-109982000D03*
X90932000Y-109982000D03*
X88392000Y-109982000D03*
X85852000Y-109982000D03*
X83312000Y-109982000D03*
X80772000Y-109982000D03*
X78232000Y-109982000D03*
X111252000Y-109982000D03*
X78232000Y-112522000D03*
X78232000Y-115062000D03*
X78232000Y-117602000D03*
X78232000Y-120142000D03*
X78232000Y-122682000D03*
X78232000Y-125222000D03*
X80772000Y-125222000D03*
X83312000Y-125222000D03*
X85852000Y-125222000D03*
X88392000Y-125222000D03*
X90932000Y-125222000D03*
X93472000Y-125222000D03*
X96012000Y-125222000D03*
X98552000Y-125222000D03*
X101092000Y-125222000D03*
X103632000Y-125222000D03*
X106172000Y-125222000D03*
X108712000Y-125222000D03*
X111252000Y-125222000D03*
D33*
X176657000Y-118237000D03*
X176657000Y-115697000D03*
X176657000Y-113157000D03*
X185417000Y-118237000D03*
X185417000Y-115697000D03*
X185417000Y-113157000D03*
D34*
X233934000Y-79248000D03*
D35*
X49022000Y-151892000D03*
X49022000Y-29972000D03*
X239522000Y-29972000D03*
X239522000Y-151892000D03*
D36*
X176530000Y-123190000D03*
X176530000Y-124460000D03*
X176530000Y-125730000D03*
X176530000Y-127000000D03*
X176530000Y-135890000D03*
X176530000Y-137160000D03*
X176530000Y-138430000D03*
X176530000Y-139700000D03*
X185928000Y-139700000D03*
X185928000Y-138430000D03*
X185928000Y-137160000D03*
X185928000Y-135890000D03*
X185928000Y-127000000D03*
X185928000Y-125730000D03*
X185928000Y-124460000D03*
X185928000Y-123190000D03*
D34*
X233934000Y-67818000D03*
D14*
X238379000Y-114173000D03*
X240792000Y-109982000D03*
X83312000Y-137922000D03*
X85852000Y-137922000D03*
X83312000Y-105537000D03*
X85852000Y-105537000D03*
X89662000Y-105664000D03*
X92964000Y-105664000D03*
X179832000Y-146304000D03*
X188214000Y-147066000D03*
X167386000Y-136779000D03*
X175260000Y-143256000D03*
D37*
X81534000Y-132588000D03*
X80264000Y-132588000D03*
X78994000Y-132588000D03*
X77724000Y-132588000D03*
X76454000Y-132588000D03*
X75184000Y-132588000D03*
X73914000Y-132588000D03*
X72644000Y-132588000D03*
X72644000Y-141088000D03*
X73914000Y-141088000D03*
X75184000Y-141088000D03*
X76454000Y-141088000D03*
X77724000Y-141088000D03*
X78994000Y-141088000D03*
X80264000Y-141088000D03*
X81534000Y-141088000D03*
D38*
X171196000Y-138895000D03*
X171196000Y-136695000D03*
D39*
X222819000Y-87503000D03*
X220919000Y-87503000D03*
D40*
X179070000Y-55118000D03*
X179070000Y-47498000D03*
X186690000Y-55118000D03*
X186690000Y-47498000D03*
X194310000Y-55118000D03*
X194310000Y-47498000D03*
X201930000Y-55118000D03*
X201930000Y-47498000D03*
X209550000Y-55118000D03*
X209550000Y-47498000D03*
X217170000Y-55118000D03*
X217170000Y-47498000D03*
X224790000Y-55118000D03*
X224790000Y-47498000D03*
X232410000Y-55118000D03*
X232410000Y-47498000D03*
X116586000Y-55118000D03*
X116586000Y-47498000D03*
X124206000Y-55118000D03*
X124206000Y-47498000D03*
X131826000Y-55118000D03*
X131826000Y-47498000D03*
X139446000Y-55118000D03*
X139446000Y-47498000D03*
X147066000Y-55118000D03*
X147066000Y-47498000D03*
X154686000Y-55118000D03*
X154686000Y-47498000D03*
X162306000Y-55118000D03*
X162306000Y-47498000D03*
X169926000Y-55118000D03*
X169926000Y-47498000D03*
X54229000Y-55118000D03*
X54229000Y-47498000D03*
X61849000Y-55118000D03*
X61849000Y-47498000D03*
X69469000Y-55118000D03*
X69469000Y-47498000D03*
X77089000Y-55118000D03*
X77089000Y-47498000D03*
X84709000Y-55118000D03*
X84709000Y-47498000D03*
X92329000Y-55118000D03*
X92329000Y-47498000D03*
X99949000Y-55118000D03*
X99949000Y-47498000D03*
X107569000Y-55118000D03*
X107569000Y-47498000D03*
D41*
X140589000Y-143368000D03*
X140589000Y-142718000D03*
X140589000Y-142068000D03*
X140589000Y-141418000D03*
X140589000Y-140768000D03*
X140589000Y-140118000D03*
X140589000Y-139468000D03*
X140589000Y-138818000D03*
X140589000Y-138168000D03*
X140589000Y-137518000D03*
X140589000Y-136868000D03*
X140589000Y-136218000D03*
X140589000Y-135568000D03*
X140589000Y-134918000D03*
X147439000Y-134918000D03*
X147439000Y-135568000D03*
X147439000Y-136218000D03*
X147439000Y-136868000D03*
X147439000Y-137518000D03*
X147439000Y-138168000D03*
X147439000Y-138818000D03*
X147439000Y-139468000D03*
X147439000Y-140118000D03*
X147439000Y-140768000D03*
X147439000Y-141418000D03*
X147439000Y-142068000D03*
X147439000Y-142718000D03*
X147439000Y-143368000D03*
X98044000Y-146543000D03*
X98044000Y-145893000D03*
X98044000Y-145243000D03*
X98044000Y-144593000D03*
X98044000Y-143943000D03*
X98044000Y-143293000D03*
X98044000Y-142643000D03*
X98044000Y-141993000D03*
X98044000Y-141343000D03*
X98044000Y-140693000D03*
X98044000Y-140043000D03*
X98044000Y-139393000D03*
X98044000Y-138743000D03*
X98044000Y-138093000D03*
X104894000Y-138093000D03*
X104894000Y-138743000D03*
X104894000Y-139393000D03*
X104894000Y-140043000D03*
X104894000Y-140693000D03*
X104894000Y-141343000D03*
X104894000Y-141993000D03*
X104894000Y-142643000D03*
X104894000Y-143293000D03*
X104894000Y-143943000D03*
X104894000Y-144593000D03*
X104894000Y-145243000D03*
X104894000Y-145893000D03*
X104894000Y-146543000D03*
D38*
X146939000Y-132926000D03*
X146939000Y-130726000D03*
D39*
X155387000Y-143129000D03*
X157287000Y-143129000D03*
D42*
X109664500Y-139512000D03*
X109664500Y-141412000D03*
D40*
X59182000Y-121615200D03*
X59182000Y-101117400D03*
X48771175Y-116332000D03*
X64452500Y-107378500D03*
X64452500Y-125285500D03*
D42*
X133604000Y-143703000D03*
X133604000Y-145603000D03*
D43*
X134891000Y-121475000D03*
X137431000Y-121475000D03*
X139971000Y-121475000D03*
X142511000Y-121475000D03*
X145051000Y-121475000D03*
X147591000Y-121475000D03*
X150131000Y-121475000D03*
X152671000Y-121475000D03*
X152671000Y-113702600D03*
X150131000Y-113702600D03*
X147591000Y-113702600D03*
X145051000Y-113702600D03*
X142511000Y-113705000D03*
X139971000Y-113702600D03*
X134891000Y-113702600D03*
X137431000Y-113702600D03*
D44*
X190103000Y-114554000D03*
X188103000Y-115504000D03*
X188103000Y-113604000D03*
D45*
X124714000Y-151130000D03*
D46*
X122174000Y-151130000D03*
X124714000Y-148590000D03*
X122174000Y-148590000D03*
X124714000Y-146050000D03*
X122174000Y-146050000D03*
X124714000Y-143510000D03*
X122174000Y-143510000D03*
D29*
X67644000Y-64643000D03*
X64944000Y-64643000D03*
X79709000Y-64643000D03*
X77009000Y-64643000D03*
X91774000Y-64643000D03*
X89074000Y-64643000D03*
X104220000Y-64770000D03*
X101520000Y-64770000D03*
X115904000Y-64770000D03*
X113204000Y-64770000D03*
X128096000Y-64770000D03*
X125396000Y-64770000D03*
X140288000Y-64770000D03*
X137588000Y-64770000D03*
X152480000Y-64770000D03*
X149780000Y-64770000D03*
X164164000Y-64770000D03*
X161464000Y-64770000D03*
X176356000Y-64770000D03*
X173656000Y-64770000D03*
X188294000Y-64643000D03*
X185594000Y-64643000D03*
X200232000Y-64770000D03*
X197532000Y-64770000D03*
D47*
X197832980Y-62230000D03*
X199931020Y-62230000D03*
X185894980Y-62103000D03*
X187993020Y-62103000D03*
X173956980Y-62230000D03*
X176055020Y-62230000D03*
X161764980Y-62230000D03*
X163863020Y-62230000D03*
X150080980Y-62230000D03*
X152179020Y-62230000D03*
X137888980Y-61722000D03*
X139987020Y-61722000D03*
X125696980Y-61722000D03*
X127795020Y-61722000D03*
X113504980Y-61722000D03*
X115603020Y-61722000D03*
X101820980Y-61722000D03*
X103919020Y-61722000D03*
X89374980Y-61468000D03*
X91473020Y-61468000D03*
X77309980Y-61468000D03*
X79408020Y-61468000D03*
X65244980Y-61722000D03*
X67343020Y-61722000D03*
M02*
